HIERARCHY
ROOT Hips
{
    OFFSET 0.000000 0.000000 0.000000
    CHANNELS 6 Xposition Yposition Zposition Zrotation Xrotation Yrotation
    JOINT Spine
    {
        OFFSET -0.000000 14.517291 0.000000
        CHANNELS 3 Zrotation Xrotation Yrotation
        JOINT Spine1
        {
            OFFSET -0.000000 37.558300 0.000000
            CHANNELS 3 Zrotation Xrotation Yrotation
            JOINT Neck
            {
                OFFSET -0.000000 37.404057 3.400369
                CHANNELS 3 Zrotation Xrotation Yrotation
                JOINT Head
                {
                    OFFSET -0.000000 24.785618 -3.540803
                    CHANNELS 3 Zrotation Xrotation Yrotation
                    End Site
                    {
                        OFFSET -0.000000 35.408028 0.000000
                    }
                }
            }
            JOINT LeftShoulder
            {
                OFFSET 6.992933 33.973492 -0.192664
                CHANNELS 3 Zrotation Xrotation Yrotation
                JOINT LeftArm
                {
                    OFFSET 21.527611 0.000000 0.000000
                    CHANNELS 3 Zrotation Xrotation Yrotation
                    JOINT LeftForeArm
                    {
                        OFFSET 56.353916 0.000000 0.000000
                        CHANNELS 3 Zrotation Xrotation Yrotation
                        JOINT LeftHand
                        {
                            OFFSET 47.774071 0.000000 0.000000
                            CHANNELS 3 Zrotation Xrotation Yrotation
                            End Site
                            {
                                OFFSET 26.556021 0.000000 0.000000
                            }
                        }
                    }
                }
            }
            JOINT RightShoulder
            {
                OFFSET -7.065357 33.973492 -0.192664
                CHANNELS 3 Zrotation Xrotation Yrotation
                JOINT RightArm
                {
                    OFFSET -21.527611 0.000000 0.000000
                    CHANNELS 3 Zrotation Xrotation Yrotation
                    JOINT RightForeArm
                    {
                        OFFSET -56.353916 0.000000 0.000000
                        CHANNELS 3 Zrotation Xrotation Yrotation
                        JOINT RightHand
                        {
                            OFFSET -47.774071 0.000000 0.000000
                            CHANNELS 3 Zrotation Xrotation Yrotation
                            End Site
                            {
                                OFFSET -26.556021 0.000000 0.000000
                            }
                        }
                    }
                }
            }
        }
    }
    JOINT LeftUpLeg
    {
        OFFSET 17.704014 0.000000 0.000000
        CHANNELS 3 Zrotation Xrotation Yrotation
        JOINT LeftLeg
        {
            OFFSET -0.000000 -81.181816 0.000000
            CHANNELS 3 Zrotation Xrotation Yrotation
            JOINT LeftFoot
            {
                OFFSET -0.000000 -62.821102 0.000000
                CHANNELS 3 Zrotation Xrotation Yrotation
                JOINT LeftToeBase
                {
                    OFFSET -0.000000 -11.507608 26.556021
                    CHANNELS 3 Zrotation Xrotation Yrotation
                    End Site
                    {
                        OFFSET -0.000000 0.000000 7.081605
                    }
                }
            }
        }
    }
    JOINT RightUpLeg
    {
        OFFSET -17.704014 0.000000 0.000000
        CHANNELS 3 Zrotation Xrotation Yrotation
        JOINT RightLeg
        {
            OFFSET -0.000000 -81.181816 0.000000
            CHANNELS 3 Zrotation Xrotation Yrotation
            JOINT RightFoot
            {
                OFFSET -0.000000 -62.821102 0.000000
                CHANNELS 3 Zrotation Xrotation Yrotation
                JOINT RightToeBase
                {
                    OFFSET -0.000000 -11.507608 26.556021
                    CHANNELS 3 Zrotation Xrotation Yrotation
                    End Site
                    {
                        OFFSET -0.000000 0.000000 7.081605
                    }
                }
            }
        }
    }
}
MOTION
Frames:    4
Frame Time:    0.008333
-10.131429    157.829208    -91.720367    -2.964867    -6.360401    49.637878    0.580866    -2.904971    1.548626    -8.653510    0.546697    0.548454    4.118898    9.972000    -22.213423    18.627520    -5.500776    -19.979788    3.142927    7.426451    -12.841244    -37.663296    10.836730    -50.029057    7.999058    -39.018677    -90.768295    -6.935104    -32.119289    -5.918603    -17.560215    -7.075044    -4.702483    12.160392    -27.437675    47.537655    -6.604825    -3.337575    12.713170    -9.025141    -5.304474    33.346752    23.949726    0.139188    -4.459728    -9.782347    23.870094    -20.184370    -3.744010    -24.015242    41.143856    0.000000    0.000000    0.000000    -11.171812    -13.615956    -23.675516    5.231546    17.605024    -18.980143    6.980379    8.795517    -10.098988    0.000000    0.000000    0.000000    
-10.127693    157.831360    -91.725418    -2.971553    -6.350984    49.642147    0.558988    -2.918871    1.521927    -8.639565    0.579743    0.542184    4.124905    9.921155    -22.208584    18.624208    -5.478964    -19.981102    3.224587    7.427744    -12.979009    -37.337234    11.087575    -50.274075    7.369103    -38.436859    -91.671700    -7.051524    -31.920109    -6.045707    -17.542061    -7.081347    -4.701564    12.151434    -27.417645    47.555122    -6.619996    -3.346731    12.721401    -9.025537    -5.310645    33.335949    23.931129    0.165513    -4.448294    -9.780608    23.860437    -20.177120    -3.667260    -24.053310    41.186405    0.000000    0.000000    0.000000    -11.176137    -13.627662    -23.662155    5.230874    17.604841    -18.984787    7.002636    8.796669    -10.115486    0.000000    0.000000    0.000000    
-10.128674    157.833405    -91.731331    -2.969730    -6.344998    49.633118    0.528443    -2.919036    1.506283    -8.624490    0.608150    0.539236    4.111208    9.920494    -22.218172    18.688967    -5.491190    -19.976597    3.328485    7.432999    -13.121661    -36.812092    11.587431    -50.555553    7.009828    -38.199673    -92.401787    -7.023119    -31.898909    -6.110566    -17.530142    -7.108243    -4.703411    12.170039    -27.398655    47.569675    -6.623551    -3.333560    12.740018    -9.042411    -5.300498    33.329163    23.937862    0.139124    -4.431068    -9.777325    23.844652    -20.172565    -3.741880    -23.988848    41.117069    0.000000    0.000000    0.000000    -11.179622    -13.639457    -23.634489    5.231407    17.608618    -18.967337    6.986013    8.799417    -10.150825    0.000000    0.000000    0.000000    
-10.118177    157.838028    -91.728432    -2.977285    -6.340311    49.643181    0.512353    -2.947218    1.476577    -8.627473    0.660456    0.533446    4.165475    9.870973    -22.210102    18.645666    -5.487131    -19.981827    3.456008    7.433784    -13.243427    -36.576607    11.749030    -50.812523    6.210075    -37.422501    -93.337883    -7.061045    -31.680037    -6.180222    -17.490549    -7.127645    -4.709221    12.165005    -27.380047    47.595188    -6.625219    -3.329136    12.740899    -9.028125    -5.291303    33.325783    23.938463    0.137103    -4.429903    -9.770488    23.828918    -20.189398    -3.749887    -23.981373    41.115620    0.000000    0.000000    0.000000    -11.180324    -13.638535    -23.624395    5.232917    17.605131    -18.984581    7.003210    8.798379    -10.148242    0.000000    0.000000    0.000000    
